# xmcd
#
# Track frame offsets:
#	182
#	18307
#	36457
#	56032
#	74482
#	88282
#	102457
#	117007
#	133207
#	147832
#	166657
#	185632
#	200857
#	213157
#	227557
#	245482
#	261682
#	278407
#	290407
#	302782
#	313282
#	324307
#	342907
#
# Disc length: 4693 seconds
#
# Revision: 1
# Processed by: cddbd v1.4PL0 Copyright (c) Steve Scherf et al.
# Submitted via: audiograbber 1.82.02
#
DISCID=6c125317
DTITLE=Various Artist - Young Australians...we care! Vol4 Disk2
DYEAR=1900
DGENRE=Country
TTITLE0=Graeme Connors - Sun Arise
TTITLE1=Gina Jeffreys - Rocking Chair
TTITLE2=Brian Cadd - Let Go
TTITLE3=The Bushwackers - Henry`s Men
TTITLE4=Mark O`Shea - When I Was Your Age
TTITLE5=Alby Pool and No City Limits - The Only Kinda Dancin
TTITLE6=Tina Martyn - Nothing Much Has Changed
TTITLE7=Sensitive New Age Cowpersons - Grief Pain and Heartache
TTITLE8=Bruce McCumstie - Stay
TTITLE9=Darren Coggan - The Dream Remains The Same
TTITLE10=Shaza Leigh - Postpone Today Until Tomorrow
TTITLE11=Harry Young - Johnson Brothers One Horse Rodeo
TTITLE12=Karyn De Vere - Kakadu
TTITLE13=Craig Giles - Outback Man
TTITLE14=Paul Jones - Back Home
TTITLE15=Lyn Bowtell - Headed South
TTITLE16=Kate Ballantyne - Big City Hotel
TTITLE17=Michael Fix - The Heart Has Reasons
TTITLE18=Legends Of The Country Guitar - This Old Guitar
TTITLE19=Leslie Avril - Superwoman
TTITLE20=Moonee Valley Drifters - Rain On My Window
TTITLE21=Lee Conway - Ride Again Cowboy
TTITLE22=Pixie Jenkins - Big Balls In Cowtown
EXTD=
EXTT0=
EXTT1=
EXTT2=
EXTT3=
EXTT4=
EXTT5=
EXTT6=
EXTT7=
EXTT8=
EXTT9=
EXTT10=
EXTT11=
EXTT12=
EXTT13=
EXTT14=
EXTT15=
EXTT16=
EXTT17=
EXTT18=
EXTT19=
EXTT20=
EXTT21=
EXTT22=
PLAYORDER=
